<svg width="556.348" height="69.729" viewBox="0 0 556.348 69.729" xmlns="http://www.w3.org/2000/svg"><g id="svgGroup" stroke-linecap="round" fill-rule="evenodd" font-size="9pt" stroke="#000" stroke-width="0.25mm" fill="#000" style="stroke:#000;stroke-width:0.25mm;fill:#000"><path d="M 492.48 6.984 L 492.48 69.728 L 478.516 69.728 L 478.516 29.982 L 454.102 66.603 Q 452.002 69.63 448.34 69.728 L 448.291 69.728 Q 444.58 69.581 442.48 66.554 L 419.287 30.616 L 419.287 69.728 L 405.322 69.728 L 405.322 6.984 Q 405.322 4.64 406.689 2.809 Q 408.057 0.978 410.303 0.294 Q 415.186 -0.878 418.164 3.175 L 448.389 50.05 L 479.688 3.126 Q 482.666 -0.878 487.5 0.294 Q 489.746 1.027 491.113 2.858 Q 492.48 4.689 492.48 6.984 Z M 556.348 55.763 L 556.348 69.728 L 516.797 69.728 Q 511.035 69.728 506.299 66.896 Q 501.563 64.064 498.73 59.327 Q 495.898 54.591 495.898 48.829 L 495.898 34.864 L 495.898 20.9 Q 495.898 15.138 498.73 10.402 Q 501.563 5.665 506.299 2.833 Q 511.035 0.001 516.797 0.001 L 556.348 0.001 L 556.348 13.966 L 516.797 13.966 Q 513.916 13.966 511.89 15.992 Q 509.863 18.019 509.863 20.9 L 509.863 27.882 L 549.365 27.882 L 549.365 41.847 L 509.863 41.847 L 509.863 48.829 Q 509.863 51.71 511.89 53.737 Q 513.916 55.763 516.797 55.763 L 556.348 55.763 Z M 264.697 69.728 L 255.029 69.728 Q 243.848 69.728 235.303 61.573 Q 227.148 53.029 227.148 41.847 L 227.148 0.001 L 241.113 0.001 L 241.113 41.847 Q 241.113 47.609 245.19 51.686 Q 249.268 55.763 255.029 55.763 L 264.697 55.763 Q 270.459 55.763 274.536 51.686 Q 278.613 47.609 278.613 41.847 L 278.613 0.001 L 292.578 0.001 L 292.578 41.847 Q 292.578 53.029 284.424 61.573 Q 275.879 69.728 264.697 69.728 Z M 41.943 4.2 L 71.143 69.728 L 55.908 69.728 L 35.596 24.171 L 15.283 69.728 L 0 69.728 L 29.199 4.2 Q 30.078 2.296 31.787 1.173 Q 33.496 0.05 35.596 0.05 Q 37.646 0.05 39.355 1.173 Q 41.064 2.296 41.943 4.2 Z M 340.088 69.728 L 326.172 69.728 L 326.172 13.966 L 302.344 13.966 L 302.344 0.001 L 363.916 0.001 L 363.916 13.966 L 340.088 13.966 L 340.088 69.728 Z M 120.41 69.728 L 87.891 69.728 Q 85.01 69.728 82.959 67.677 Q 80.908 65.626 80.908 62.745 L 80.908 6.984 Q 80.908 4.103 82.959 2.052 Q 85.01 0.001 87.891 0.001 L 120.41 0.001 Q 126.172 0.001 130.933 2.833 Q 135.693 5.665 138.525 10.402 Q 141.357 15.138 141.357 20.9 Q 141.357 24.952 139.941 28.517 Q 138.525 32.081 135.986 34.864 Q 138.525 37.648 139.941 41.212 Q 141.357 44.777 141.357 48.829 Q 141.357 54.591 138.525 59.327 Q 135.693 64.064 130.933 66.896 Q 126.172 69.728 120.41 69.728 Z M 172.021 0.001 L 196.436 0.001 Q 202.197 0.001 206.958 2.833 Q 211.719 5.665 214.551 10.402 Q 217.383 15.138 217.383 20.9 L 217.383 48.829 Q 217.383 54.591 214.551 59.327 Q 211.719 64.064 206.958 66.896 Q 202.197 69.728 196.436 69.728 L 172.021 69.728 Q 166.26 69.728 161.523 66.896 Q 156.787 64.064 153.955 59.327 Q 151.123 54.591 151.123 48.829 L 151.123 20.9 Q 151.123 15.138 153.955 10.402 Q 156.787 5.665 161.523 2.833 Q 166.26 0.001 172.021 0.001 Z M 94.873 41.847 L 94.873 47.657 L 94.873 55.763 L 120.41 55.763 Q 123.291 55.763 125.342 53.737 Q 127.393 51.71 127.393 48.829 Q 127.393 45.948 125.342 43.898 Q 123.291 41.847 120.41 41.847 L 101.807 41.847 L 101.807 27.882 L 120.41 27.882 Q 123.291 27.882 125.342 25.856 Q 127.393 23.829 127.393 20.9 Q 127.393 18.019 125.342 15.992 Q 123.291 13.966 120.41 13.966 L 94.873 13.966 L 94.873 20.9 L 94.873 27.882 L 94.873 41.847 Z M 175.537 55.763 L 196.436 55.763 Q 199.316 55.763 201.367 53.737 Q 203.418 51.71 203.418 48.829 L 203.418 22.853 L 175.537 55.763 Z M 192.676 13.966 L 172.021 13.966 Q 169.141 13.966 167.114 15.992 Q 165.088 18.019 165.088 20.9 L 165.088 46.583 L 192.676 13.966 Z" vector-effect="non-scaling-stroke"/></g></svg>